<svg width="900" height="340" viewBox="0 0 900 340" fill="none" xmlns="http://www.w3.org/2000/svg">
  <rect width="900" height="340" rx="28" fill="#F4FBFF"/>
  <path d="M82 169C96 151 120 137 152 134C166 132 180 126 196 112C208 101 220 100 227 108C233 115 232 126 224 137C214 149 214 158 226 165C239 172 241 184 232 194C223 205 207 211 183 209C162 207 145 209 132 216C113 225 90 228 77 219C64 210 65 188 82 169Z" fill="#2D9C8F"/>
  <path d="M244 239C270 232 300 229 331 229C360 229 381 232 394 238C406 244 405 254 392 259C378 265 350 268 307 267C268 266 242 262 229 255C217 248 221 239 244 239Z" fill="#53C1AA"/>
  <ellipse cx="414" cy="247" rx="9" ry="6" fill="#6FD9C2"/>
  <ellipse cx="438" cy="250" rx="10" ry="6" fill="#7BE3CC"/>
  <ellipse cx="467" cy="253" rx="9" ry="5.5" fill="#88E9D4"/>
  <path d="M348 114C374 90 421 78 466 84C509 90 538 112 540 144C542 173 521 193 492 205C463 217 430 219 394 211C354 202 324 182 320 156C317 141 325 128 348 114Z" fill="#37A9A6"/>
  <path d="M558 129C574 114 590 107 605 108C616 109 622 116 621 127C620 138 624 146 636 151C650 157 657 169 653 180C649 191 638 196 621 194C608 192 600 197 598 208C596 221 589 231 577 235C563 239 551 236 545 226C540 217 530 213 515 213C498 213 487 206 487 194C487 183 497 176 513 171C525 167 531 159 532 146C533 138 542 131 558 129Z" fill="#7FB654"/>
  <path d="M663 229C678 217 697 211 720 211C741 211 756 214 765 221C773 228 773 237 765 245C757 252 744 256 726 258C706 260 690 266 678 276C668 285 656 290 644 289C630 288 621 281 620 270C619 258 625 248 639 241C649 236 657 232 663 229Z" fill="#D7A83C"/>
  <ellipse cx="609" cy="246" rx="8" ry="5.5" fill="#B9D572"/>
  <ellipse cx="630" cy="254" rx="8" ry="5.5" fill="#BEDB7D"/>
  <ellipse cx="646" cy="262" rx="8" ry="5.5" fill="#C7E191"/>
  <path d="M734 143C760 129 792 122 830 124C856 126 875 132 885 141C893 149 893 159 885 168C878 176 865 181 846 182C833 183 820 187 807 194C795 201 780 206 760 208C738 210 719 206 708 198C697 191 695 181 700 171C705 161 716 152 734 143Z" fill="#34B4C6"/>
  <ellipse cx="700" cy="210" rx="8" ry="5.5" fill="#A8D3E2"/>
  <ellipse cx="785" cy="214" rx="7" ry="5" fill="#A2D9C8"/>
  <path d="M563 218C569 214 576 213 582 214C588 215 591 219 590 225C589 231 584 236 576 240C568 244 560 245 554 243C548 241 546 236 549 230C551 225 556 221 563 218Z" fill="#7BC28D"/>
  <ellipse cx="176" cy="101" rx="7" ry="4.5" fill="#86D4C0"/>
  <ellipse cx="280" cy="259" rx="11" ry="5.5" fill="#7BE3CC"/>
  <ellipse cx="512" cy="111" rx="8" ry="4.5" fill="#9AC86D"/>
  <ellipse cx="874" cy="152" rx="7" ry="4.5" fill="#5BC7D6"/>
</svg>
