<svg width="960" height="720" viewBox="0 0 960 720" fill="none" xmlns="http://www.w3.org/2000/svg">
  <defs>
    <linearGradient id="bg" x1="120" y1="60" x2="760" y2="660" gradientUnits="userSpaceOnUse">
      <stop stop-color="#10363E"/>
      <stop offset="0.55" stop-color="#0D1C22"/>
      <stop offset="1" stop-color="#162A2E"/>
    </linearGradient>
    <linearGradient id="mountainA" x1="150" y1="230" x2="420" y2="500" gradientUnits="userSpaceOnUse">
      <stop stop-color="#2D606A"/>
      <stop offset="1" stop-color="#17353B"/>
    </linearGradient>
    <linearGradient id="mountainB" x1="420" y1="180" x2="710" y2="520" gradientUnits="userSpaceOnUse">
      <stop stop-color="#3A7A85"/>
      <stop offset="1" stop-color="#19353A"/>
    </linearGradient>
    <linearGradient id="ground" x1="230" y1="510" x2="670" y2="650" gradientUnits="userSpaceOnUse">
      <stop stop-color="#1A393A"/>
      <stop offset="1" stop-color="#112225"/>
    </linearGradient>
    <linearGradient id="trail" x1="250" y1="520" x2="675" y2="560" gradientUnits="userSpaceOnUse">
      <stop stop-color="#1EDC9C"/>
      <stop offset="1" stop-color="#2DC0FF"/>
    </linearGradient>
    <filter id="glow" x="132" y="296" width="626" height="259" filterUnits="userSpaceOnUse" color-interpolation-filters="sRGB">
      <feFlood flood-opacity="0" result="BackgroundImageFix"/>
      <feBlend mode="normal" in="SourceGraphic" in2="BackgroundImageFix" result="shape"/>
      <feGaussianBlur stdDeviation="10" result="effect1_foregroundBlur"/>
    </filter>
  </defs>

  <rect width="960" height="720" rx="34" fill="url(#bg)"/>
  <circle cx="696" cy="166" r="94" fill="#E2B84D" fill-opacity="0.15"/>
  <circle cx="696" cy="166" r="52" fill="#E2B84D" fill-opacity="0.18"/>
  <path d="M118 436L246 260L350 372L474 204L598 348L676 250L820 436H118Z" fill="url(#mountainA)"/>
  <path d="M66 478L232 312L356 444L518 228L646 394L772 294L900 478H66Z" fill="url(#mountainB)"/>
  <path d="M0 564C110 532 188 520 280 528C368 536 450 578 544 564C630 550 724 494 960 530V720H0V564Z" fill="url(#ground)"/>

  <path d="M150 560C220 532 276 534 348 554C438 580 516 578 612 542C686 514 768 494 868 508" stroke="#6A8E91" stroke-width="4" stroke-linecap="round" stroke-dasharray="1 18"/>
  <g filter="url(#glow)">
    <path d="M164 542C248 510 302 514 370 532C454 554 510 556 612 520C676 498 742 476 836 486" stroke="url(#trail)" stroke-width="10" stroke-linecap="round"/>
  </g>

  <g transform="translate(640 292)">
    <path d="M94 36C109.464 36 122 23.464 122 8C122 -7.464 109.464 -20 94 -20C78.536 -20 66 -7.464 66 8C66 23.464 78.536 36 94 36Z" fill="#F8D7B4"/>
    <path d="M90 42C116 42 138 60 142 86L148 124L184 162C192 170 192 183 184 191C176 199 163 199 155 191L114 152C109 147 106 141 105 135L100 104L84 156L132 228C140 240 136 256 123 264C110 272 94 268 86 256L34 172C28 163 27 152 32 142L58 86C65 60 70 42 90 42Z" fill="#FF1014"/>
    <path d="M53 88L18 132C9 143 -7 145 -18 136C-29 127 -31 111 -22 100L16 50C24 39 37 34 51 36L93 42L83 78L53 88Z" fill="#1EDC9C"/>
    <path d="M84 150L26 220C16 232 -2 234 -14 224C-26 214 -28 196 -18 184L43 108L84 150Z" fill="#2DC0FF"/>
    <path d="M133 226L200 286C212 297 213 316 201 328C189 340 171 341 159 330L90 268L133 226Z" fill="#E2B84D"/>
    <path d="M18 220L-34 296C-44 310 -63 313 -77 303C-91 293 -94 274 -84 260L-26 182L18 220Z" fill="#F8F4EA"/>
    <path d="M183 285L259 360C270 372 270 390 258 401C246 412 228 412 217 400L143 325L183 285Z" fill="#F8F4EA"/>
  </g>

  <g opacity="0.94">
    <rect x="98" y="116" width="190" height="120" rx="24" fill="#0F191C" fill-opacity="0.64" stroke="#FFFFFF" stroke-opacity="0.08"/>
    <text x="126" y="164" fill="#FFF8EC" font-family="Arial, sans-serif" font-size="24" font-weight="700">Live timing</text>
    <text x="126" y="198" fill="#97E7FF" font-family="Arial, sans-serif" font-size="16" font-weight="700">Organizers / Spectators / Crew</text>
  </g>
</svg>
