<svg xmlns="http://www.w3.org/2000/svg" viewBox="0 0 476.15 500.23" aria-hidden="true">
  <g fill="currentColor">
    <path d="M84.91 193.45c0 30.69 38.37 42.12 56.41 22.21 4.23-4.66 8.99-14.74 12.31-20.91 1.33-2.47 1.6-2.52 2.92-4.9 1.26-2.26 1.68-3.5 3.03-5.76 2.29-3.84 3.72-6.76 6.01-10.59l12.14-22.06 59.6 0c-0.83 3.56-20.08 35.64-22.47 40.06-20.51 37.88-49.83 84.22-69.37 121.15-22.18 0-104.43-1.31-119.8 1.35-15.63 2.71-27.52 20.51-25.45 34.39 2.4 16.07 14.25 29.72 31.91 29.72l131.9 0c22.62 0 29.8-20.02 40.48-37.68l9.34-17.04c3.31 0.88 26.05 20 29.3 22.48 4.87 3.72 9.13 7.33 14.24 11.16l15.08 11.3c-3.71 15.91-37.13 85.73-37.13 98.68 0 10.48 3 17.13 9.01 23.23 5.99 6.09 13.35 9.32 20.76 9.99l5.8 0c10.84-0.97 21.02-7.37 26.26-18.28l26.66-66.16c4.65-11.62 8.77-21.94 13.4-33.5 5.69-14.22 13.88-34.62-5.15-49.14-4.47-3.41-8.32-6.68-13.14-10.31l-25.64-20.28c-5.27-4.28-22.95-17.06-25.71-21.19 4.92-7.35 42.02-70.11 42.99-74.25 4.26 1.14 9.08 11.2 11.53 14.85 9.91 14.78 22.11 40.84 40.25 40.84 16.98 0 13.91-0.83 29.32-8.79l59.59-33.23c6.54-3.38 13.27-6.89 17.76-12.53 19.72-24.75-3.74-68.18-44.15-47.08l-47.86 26.39-32.05-49.12c-2.09-2.59-1.02-2.09-9-2.58-5.9-0.36-7.26-0.16-12.46-1.28-20.62-4.47-37.52-15.82-49.37-31.73-5.78-7.76-8.41-15.92-11.44-15.92l-107.47 0c-19.95 0-29.52 24-37.45 38.76l-11.97 21.25c-1.61 2.69-2.18 4.32-3.66 7.08-6.02 11.22-17.27 26.87-17.27 39.4z"/>
    <path d="M286.17 53.74c0 13.08 6.68 28.3 15.36 37.39 33.03 34.61 93.08 10.88 93.08-37.39 0-29.11-25.71-53.74-49.83-53.74-18.44 0-30.03 2.92-43.74 16.83-8.34 8.45-14.88 24.58-14.88 36.9z"/>
  </g>
</svg>
